<svg width="24" height="24" viewBox="0 0 24 24" fill="none" xmlns="http://www.w3.org/2000/svg">
<path fill-rule="evenodd" clip-rule="evenodd" d="M22 7.16624L21.9596 6.50859L21.7618 7.05663L20.6472 8.00804L19.3708 8.20095L18.9888 7.84143L20.1034 6.33321L21.2539 6L20.0135 6.02631L18.2112 7.30216L16.5213 7.18378L18.2157 8.31494L19.0517 8.88929L16.5079 7.14432L14.1438 6L12.7416 6.27183L8.36854 9.82316L6.26517 10.4852L5.39775 11.3489L3.8427 11.3665L3.07865 12.7607L2 13.0632L3.02022 13.2035L3.96854 11.954L5.42921 12.2521L5.40674 13.5849L4.67416 15.5097L4.25618 17.2897L3.80674 18L4.94831 17.7545L4.81798 17.0267L5.78427 15.0712L7.65843 14.3391L8.38202 13.1684L9.60449 12.2959L12.027 12.6467L14.4764 11.5988L14.0584 13.2517L12.9708 13.3482L12.6607 14.7117L13.5955 14.1023L15.1326 13.449L16.3416 11.6076L16.4135 10.7307L17.0652 11.3884L18.9483 12.5371L20.0135 12.046L19.9506 9.60395L19.6449 8.66131L21.0427 8.31933L22 7.16624Z" fill="#1348E4"/>
</svg>
