<svg width="24" height="24" viewBox="0 0 24 24" fill="none" xmlns="http://www.w3.org/2000/svg">
<path d="M20.71 4.63L19.37 3.29C19 2.9 18.35 2.9 17.96 3.29L9 12.25L11.75 15L20.71 6.04C21.1 5.65 21.1 5 20.71 4.63ZM7 14C6.20435 14 5.44129 14.3161 4.87868 14.8787C4.31607 15.4413 4 16.2043 4 17C4 18.31 2.84 19 2 19C2.92 20.22 4.5 21 6 21C7.06087 21 8.07828 20.5786 8.82843 19.8284C9.57857 19.0783 10 18.0609 10 17C10 16.2043 9.68393 15.4413 9.12132 14.8787C8.55871 14.3161 7.79565 14 7 14Z" fill="#FF2E72"/>
</svg>
