<svg width="25" height="24" viewBox="0 0 25 24" fill="none" xmlns="http://www.w3.org/2000/svg">
<path d="M3.85645 14.7074V10.134C3.85645 8.59541 4.67471 7.17306 6.0039 6.39898L10.3257 3.88369C11.6693 3.10192 13.3298 3.10192 14.6734 3.88369L18.9952 6.39898C20.3254 7.17306 21.1436 8.59541 21.1436 10.134V14.7074C21.1436 16.246 20.3254 17.6683 18.9962 18.4424L14.6744 20.9577C13.3308 21.7394 11.6703 21.7394 10.3267 20.9577L6.00486 18.4424C4.67471 17.6683 3.85645 16.246 3.85645 14.7074Z" stroke="currentColor" stroke-width="1.5" stroke-linecap="round" stroke-linejoin="round"/>
<path d="M12.5002 8.5791C13.6786 8.5791 14.6342 9.5347 14.6342 10.7131C14.6342 11.8915 13.6786 12.8471 12.5002 12.8471C11.3218 12.8471 10.3662 11.8915 10.3662 10.7131C10.3662 9.5347 11.3218 8.5791 12.5002 8.5791" stroke="currentColor" stroke-width="1.5" stroke-linecap="round" stroke-linejoin="round"/>
<path d="M16.3419 16.2623C16.2305 15.9809 16.0567 15.7292 15.8348 15.5237V15.5237C15.4593 15.1761 14.9695 14.9821 14.4576 14.9821C13.6038 14.9821 11.3978 14.9821 10.544 14.9821C10.0321 14.9821 9.5413 15.1761 9.16578 15.5237V15.5237C8.94393 15.7283 8.77106 15.9809 8.65869 16.2623" stroke="currentColor" stroke-width="1.5" stroke-linecap="round" stroke-linejoin="round"/>
</svg>
