<svg width="25" height="24" viewBox="0 0 25 24" fill="none" xmlns="http://www.w3.org/2000/svg">
<path d="M21.5041 9.49887V6.49762C21.5041 5.11634 20.3843 3.99658 19.003 3.99658H5.99762C4.61634 3.99658 3.49658 5.11634 3.49658 6.49762V7.99825" stroke="currentColor" stroke-width="1.5" stroke-linecap="round" stroke-linejoin="round"/>
<path d="M21.5038 14.501V17.5022C21.5038 18.8835 20.3841 20.0033 19.0028 20.0033H13.5005" stroke="currentColor" stroke-width="1.5" stroke-linecap="round" stroke-linejoin="round"/>
<path d="M2.49609 12.6006V19.4034C2.49723 20.2872 4.2877 21.0041 6.49776 21.0041C8.70782 21.0041 10.4983 20.2872 10.4994 19.4034V12.6006" stroke="currentColor" stroke-width="1.5" stroke-linecap="round" stroke-linejoin="round"/>
<path d="M10.4983 12.6002C10.4983 13.484 8.70668 14.2008 6.49662 14.2008C4.28656 14.2008 2.49609 13.484 2.49609 12.6002C2.49609 11.7152 4.28884 10.9995 6.49776 10.9995C8.70668 10.9995 10.4983 11.7164 10.4994 12.6002" stroke="currentColor" stroke-width="1.5" stroke-linecap="round" stroke-linejoin="round"/>
<path d="M2.49658 16.002C2.49658 16.8858 4.28705 17.6026 6.49711 17.6026C8.70717 17.6026 10.4988 16.8858 10.4988 16.002" stroke="currentColor" stroke-width="1.5" stroke-linecap="round" stroke-linejoin="round"/>
<path fill-rule="evenodd" clip-rule="evenodd" d="M19.003 9.49902H21.504C22.0566 9.49902 22.5045 9.94693 22.5045 10.4994V13.5007C22.5045 14.0532 22.0566 14.5011 21.504 14.5011H19.003C17.6217 14.5011 16.502 13.3814 16.502 12.0001V12.0001C16.502 10.6188 17.6217 9.49902 19.003 9.49902V9.49902Z" stroke="currentColor" stroke-width="1.5" stroke-linecap="round" stroke-linejoin="round"/>
</svg>
