<svg width="16" height="16" viewBox="0 0 16 16" fill="none" xmlns="http://www.w3.org/2000/svg">
<path d="M12.6666 14.0001H5.33331V4.66675H12.6666V14.0001ZM12.6666 3.33341H5.33331C4.97969 3.33341 4.64055 3.47389 4.3905 3.72394C4.14046 3.97399 3.99998 4.31313 3.99998 4.66675V14.0001C3.99998 14.3537 4.14046 14.6928 4.3905 14.9429C4.64055 15.1929 4.97969 15.3334 5.33331 15.3334H12.6666C13.0203 15.3334 13.3594 15.1929 13.6095 14.9429C13.8595 14.6928 14 14.3537 14 14.0001V4.66675C14 4.31313 13.8595 3.97399 13.6095 3.72394C13.3594 3.47389 13.0203 3.33341 12.6666 3.33341ZM10.6666 0.666748H2.66665C2.31302 0.666748 1.97389 0.807224 1.72384 1.05727C1.47379 1.30732 1.33331 1.64646 1.33331 2.00008V11.3334H2.66665V2.00008H10.6666V0.666748Z" fill="#727272"/>
</svg>
