<svg width="25" height="24" viewBox="0 0 25 24" fill="none" xmlns="http://www.w3.org/2000/svg">
<path d="M5.5 3C4.39 3 3.5 3.89 3.5 5V19C3.5 19.5304 3.71071 20.0391 4.08579 20.4142C4.46086 20.7893 4.96957 21 5.5 21H19.5C20.0304 21 20.5391 20.7893 20.9142 20.4142C21.2893 20.0391 21.5 19.5304 21.5 19V12H19.5V19H5.5V5H12.5V3H5.5ZM18.28 4C18.11 4 17.93 4.07 17.8 4.2L16.58 5.41L19.08 7.91L20.3 6.7C20.56 6.44 20.56 6 20.3 5.75L18.75 4.2C18.62 4.07 18.45 4 18.28 4ZM15.87 6.12L8.5 13.5V16H11L18.37 8.62L15.87 6.12Z" fill="currentColor"/>
</svg>
