<?xml version="1.0" encoding="utf-8"?>
<svg xmlns="http://www.w3.org/2000/svg" fill="none" height="106" viewBox="0 0 106 106" width="106">
<path d="M65.2486 49.9981C63.6676 51.4014 61.0931 52.1617 57.4005 52.1617H40.8842V77.3276H47.7906V58.7072H58.2666C61.5573 58.7072 64.4368 58.1178 66.8876 56.9174L66.8918 56.9153C69.3857 55.6684 71.3432 53.9148 72.7487 51.6559C74.1607 49.3867 74.855 46.705 74.855 43.6344C74.855 40.58 74.1676 37.4698 72.7487 35.1894C71.3431 32.9303 69.3848 31.2001 66.8897 30.0012C64.4382 28.7518 61.5577 28.1381 58.2666 28.1381H40.8842V34.6837H57.4005C61.0956 34.6837 63.6711 35.445 65.2519 36.8501C66.8154 38.24 67.66 40.7359 67.66 43.6344C67.66 46.4511 66.8337 48.5433 65.2486 49.9981Z" fill="black"/>
<path clip-rule="evenodd" d="M105.36 52.7329C105.36 81.8273 81.7747 105.413 52.6802 105.413C23.5857 105.413 0 81.8273 0 52.7329C0 23.6384 23.5857 0.0526123 52.6802 0.0526123C81.7747 0.0526123 105.36 23.6384 105.36 52.7329ZM98.4594 52.7329C98.4594 78.016 77.9634 98.512 52.6802 98.512C27.3971 98.512 6.90111 78.016 6.90111 52.7329C6.90111 27.4497 27.3971 6.95372 52.6802 6.95372C77.9634 6.95372 98.4594 27.4497 98.4594 52.7329Z" fill="black" fill-rule="evenodd"/>
</svg>