<svg xmlns="http://www.w3.org/2000/svg" viewBox="0 0 148 22" fill="none">
  <path fill="#000" fill-rule="evenodd" d="M41.047 5.283H29.529a.154.154 0 0 0-.155.155v2.25a.152.152 0 0 0 .155.154h1.776V19.19H29.53a.154.154 0 0 0-.155.154v2.22c0 .084.07.154.155.154h7.04c.086 0 .155-.07.155-.155v-2.22a.154.154 0 0 0-.154-.154h-1.99v-4.05h5.092c.086 0 .155-.07.155-.155v-2.386a.154.154 0 0 0-.155-.157h-5.091V8.117h3.756v1.514c0 .085.07.154.155.154h2.546c.085 0 .154-.069.154-.154V5.438a.154.154 0 0 0-.145-.155ZM48.932 19.26h-1.514V9.982a.154.154 0 0 0-.154-.155h-4.67a.154.154 0 0 0-.155.155v2.158c0 .086.07.155.154.155h1.641v6.963H42.72a.154.154 0 0 0-.154.155v2.15c0 .085.07.154.154.154h6.224c.085 0 .154-.07.154-.154v-2.15a.154.154 0 0 0-.166-.155Z" clip-rule="evenodd"></path>
  <rect width="3.218" height="2.876" x="44.213" y="5.283" fill="#000" rx="0.51"></rect>
  <path fill="#000" fill-rule="evenodd" d="M64.697 19.259h-1.514v-5.147c0-3.028-1.359-4.563-4.038-4.563a4.798 4.798 0 0 0-4.117 2.162v-.442c0-.936-.587-1.45-1.652-1.45h-3.054a.154.154 0 0 0-.155.154v2.159c0 .085.07.154.154.154h1.296a.303.303 0 0 1 .345.345v6.628H50.45a.154.154 0 0 0-.155.154v2.15c0 .085.07.154.155.154h6.226c.086 0 .155-.069.155-.154v-2.15a.154.154 0 0 0-.155-.154h-1.513v-2.892c0-1.874 1.108-3.866 3.163-3.866 1.21 0 1.683.639 1.683 2.207v6.855a.155.155 0 0 0 .157.154h4.541a.154.154 0 0 0 .145-.154v-2.15a.154.154 0 0 0-.154-.154ZM80.592 16.304h-2.703a.154.154 0 0 0-.155.155v1.25c0 1.084-2.252 1.435-3.345 1.435-3.172 0-5.388-2.4-5.388-5.843 0-3.252 2.101-5.45 5.23-5.45 1.275 0 3.297.396 3.297 1.46v1.262a.154.154 0 0 0 .155.157h2.703a.154.154 0 0 0 .154-.157v-2.18c0-2.774-4.652-3.382-6.444-3.382-4.828 0-8.476 3.633-8.476 8.426 0 4.88 3.69 8.562 8.582 8.562 2.527 0 6.538-.908 6.538-3.33v-2.21a.154.154 0 0 0-.148-.155ZM88.126 19.123s-.224.021-.53.021c-.778 0-1.026-.348-1.026-1.435V5.438a.154.154 0 0 0-.154-.155h-4.659a.154.154 0 0 0-.154.155v2.158c0 .086.069.155.154.155h1.64v10.14c0 3.52 2.12 3.936 3.7 3.936a8.27 8.27 0 0 0 1.065-.07.155.155 0 0 0 .134-.155v-2.325a.158.158 0 0 0-.052-.115.148.148 0 0 0-.118-.04ZM102.874 19.28h-1.114a.303.303 0 0 1-.345-.344V9.983a.154.154 0 0 0-.155-.155h-4.655a.154.154 0 0 0-.155.155v2.159a.15.15 0 0 0 .155.154h1.616v2.846c0 1.929-1.068 3.982-3.048 3.982-1.18 0-1.662-.633-1.662-2.186V9.973a.154.154 0 0 0-.154-.155h-4.683a.154.154 0 0 0-.155.155v2.159c0 .085.07.154.155.154h1.64v5.147c0 3.028 1.33 4.563 3.95 4.563a4.683 4.683 0 0 0 4.093-2.14v.417c0 .936.588 1.45 1.653 1.45h2.864c.085 0 .154-.069.154-.154v-2.126a.154.154 0 0 0-.154-.163ZM110.045 14.6c-1.317-.394-2.322-.76-2.322-1.58 0-.821 1.169-.89 1.514-.89.941 0 1.549.302 1.549.798v.66c0 .086.07.155.155.155h2.476c.085 0 .154-.07.154-.154V12.12c0-1.88-2.591-2.564-4.334-2.564-2.177 0-4.72.908-4.72 3.472 0 2.423 2.355 3.25 3.76 3.737l.548.196c1.341.476 1.986.736 1.986 1.454 0 .717-.942 1.026-1.817 1.026-1.02 0-2.118-.33-2.118-1.05v-.682a.155.155 0 0 0-.155-.154h-2.452a.154.154 0 0 0-.154.154v1.342c0 1.916 2.5 2.949 4.843 2.949 3.063 0 5.04-1.445 5.04-3.676.018-2.444-2.276-3.18-3.953-3.724Z" clip-rule="evenodd"></path>
  <rect width="3.218" height="2.876" x="116.94" y="5.283" fill="#F68C3D" rx="0.51"></rect>
  <path fill="#000" fill-rule="evenodd" d="M121.663 19.26h-1.514V9.982a.154.154 0 0 0-.154-.155h-4.671a.154.154 0 0 0-.154.155v2.158c0 .086.069.155.154.155h1.641v6.963h-1.514a.154.154 0 0 0-.154.155v2.15c0 .085.069.154.154.154h6.224c.085 0 .154-.07.154-.154v-2.15a.157.157 0 0 0-.049-.114.155.155 0 0 0-.117-.04ZM135.078 9.828h-5.563a.152.152 0 0 0-.111.044.154.154 0 0 0-.047.11v2.16c0 .04.017.08.047.11a.152.152 0 0 0 .111.044h1.099l-1.95 5.522c-.067.199-.122.401-.166.606a4.403 4.403 0 0 0-.179-.606l-1.928-5.522h1.077c.086 0 .155-.07.155-.155V9.983a.154.154 0 0 0-.155-.155h-5.566a.154.154 0 0 0-.155.155v2.158c0 .086.069.155.155.155h1.301l3.484 9.331c.024.06.081.1.146.1h3.329c.065 0 .122-.04.146-.1l3.505-9.331h1.265c.086 0 .155-.07.155-.155V9.983a.154.154 0 0 0-.155-.155ZM135.699 15.778c0-3.664 2.482-6.222 6.039-6.222 3.175 0 5.309 2.274 5.309 5.658 0 .27-.042.71-.061.902a2.75 2.75 0 0 0-.008.095.155.155 0 0 1-.155.136h-7.846a3.167 3.167 0 0 0 3.303 2.918 5.729 5.729 0 0 0 3.263-1.192.148.148 0 0 1 .127-.03.156.156 0 0 1 .109.075l1.111 2.047a.152.152 0 0 1-.03.188 7.472 7.472 0 0 1-4.78 1.646c-3.699 0-6.381-2.615-6.381-6.221Zm5.966-3.685c-1.304 0-2.3.85-2.603 2.234h4.692c-.097-1.344-.92-2.234-2.089-2.234Z" clip-rule="evenodd"></path>
  <path fill="#FFC20E" fill-rule="evenodd" d="m0 8.28.003 13.438L12.85 0 0 8.28Z" clip-rule="evenodd"></path>
  <path fill="#F68C3D" fill-rule="evenodd" d="M12.85 0 .004 21.718 25.7 8.28 12.85 0Z" clip-rule="evenodd"></path>
  <path fill="#27AAE1" fill-rule="evenodd" d="m13.567 15.44 12.136 6.28V9.004L13.567 15.44Z" clip-rule="evenodd"></path>
  <path fill="#006AAC" fill-rule="evenodd" d="m13.567 15.44 5.64 2.91 6.495-9.346-12.135 6.437Z" clip-rule="evenodd"></path>
  </svg>