<?xml version="1.0" encoding="UTF-8"?>
<svg id="Layer_1" xmlns="http://www.w3.org/2000/svg" viewBox="0 0 975 212" style="background-color:white; border-radius:5px; padding:5px"><defs><style>.cls-1{fill:#ff4900;}</style></defs>
    <path class="cls-1" d="m228.91,13.14c0,19.94-19.27,24.08-19.27,24.08l-95.2,26.49c.12-.36,11.32-39.01,29.38-44.12C161.88,14.49,209.64,1.31,209.64,1.31c0,0,19.36-7.13,19.27,11.82Zm-61.63,72.37s-9.2,2.41-27.21,7.56c-18.01,5.15-25.55,42.89-25.62,43.2l-95.17,26.49S0,166.88,0,186.85c-.1,18.95,19.27,11.85,19.27,11.85,0,0,51.39-14.45,69.41-19.6,18.01-5.15,25.67-42.46,25.77-42.8l52.98-14.86s19.27-3.83,19.27-23.75-19.41-12.19-19.41-12.19Zm-125.09,16.81c0,18.88,19.27,11.78,19.27,11.78,0,0,9.22-2.41,27.24-7.59,18.01-5.18,25.7-42.46,25.74-42.8l-52.98,14.86s-19.27,3.83-19.27,23.75Zm440.44-26.18h16.82v79.21h-16.82v-11.32c-5.4,8.77-14.32,13.15-26.76,13.15-11.32,0-20.26-3.95-26.84-11.85-6.58-7.9-9.86-17.76-9.86-29.59s3.29-21.69,9.86-29.59c6.58-7.9,15.52-11.85,26.84-11.85,12.44,0,21.36,4.38,26.76,13.15v-11.32Zm-.61,39.61c0-7.34-2.01-13.41-6.04-18.2-4.03-4.79-9.46-7.19-16.29-7.19s-12.13,2.42-16.21,7.26c-4.08,4.84-6.12,10.88-6.12,18.12s2.04,13.28,6.12,18.12c4.08,4.84,9.48,7.26,16.21,7.26s12.26-2.39,16.29-7.19c4.03-4.79,6.04-10.86,6.04-18.2Zm73.71-25.54c4.79,0,8.89,1.33,12.31,3.98,3.41,2.65,5.68,6.17,6.81,10.55h18.66c-1.22-8.05-5.07-15.16-11.55-21.33-6.48-6.17-15.17-9.25-26.07-9.25-11.52,0-21,4-28.44,12-7.44,8.01-11.16,17.87-11.16,29.59s3.72,21.44,11.16,29.44c7.44,8,16.92,12,28.44,12,10.91,0,19.6-3.08,26.07-9.25,6.47-6.17,10.32-13.28,11.55-21.33h-18.66c-1.12,4.38-3.39,7.9-6.81,10.55-3.42,2.65-7.52,3.98-12.31,3.98-6.42,0-11.57-2.34-15.44-7.03-3.88-4.69-5.81-10.81-5.81-18.35s1.94-13.69,5.81-18.43c3.87-4.74,9.02-7.11,15.44-7.11Zm172.16-14.07h16.82v79.21h-16.82v-11.32c-5.4,8.77-14.32,13.15-26.76,13.15-11.32,0-20.26-3.95-26.84-11.85-6.58-7.9-9.86-17.76-9.86-29.59s3.29-21.69,9.86-29.59c6.58-7.9,15.52-11.85,26.84-11.85,12.44,0,21.36,4.38,26.76,13.15v-11.32Zm-.61,39.61c0-7.34-2.01-13.41-6.04-18.2-4.03-4.79-9.46-7.19-16.29-7.19s-12.13,2.42-16.21,7.26c-4.08,4.84-6.12,10.88-6.12,18.12s2.04,13.28,6.12,18.12c4.08,4.84,9.48,7.26,16.21,7.26s12.26-2.39,16.29-7.19c4.03-4.79,6.04-10.86,6.04-18.2Zm37.01,39.61h18.2V44.96h-18.2v110.39Zm-131.95-63.21v-36.8h-18.2v18.96h-12.91v18.2h12.91v44.65c0,10.05,8.15,18.2,18.2,18.2h20.26v-18.2h-16.86c-1.88,0-3.4-1.52-3.4-3.4v-41.25h20.59v-18.2h-2.4c-9.93,0-17.99,7.95-18.19,17.83Zm-252.31-16.04l-18.2-.11v79.37h18.47v-79.21h-.27v-.04Zm.28,16.41h0s32.14,0,32.14,0v-18.2h-13.94c-10.05,0-18.2,8.15-18.2,18.2Zm447.38,63.14h17.75V44.51h-17.75v111.13Zm-553.17-.31l18.76.02.05-47.12,52.74.06.02-17.36-52.74-.06.03-28.21,53.17.06.02-17.36-71.92-.08-.12,110.05Zm687.59-55.26c0,16.7-5.24,30.13-15.73,40.3-10.49,10.17-25.12,15.26-43.91,15.26h-37.72V44.51h37.72c18.78,0,33.42,5.09,43.91,15.26,10.49,10.17,15.73,23.61,15.73,40.3Zm-20.03,0c0-11.9-3.37-21.21-10.1-27.94-6.73-6.73-16.77-10.09-30.13-10.09h-18.16v76.07h18.16c13.36,0,23.4-3.37,30.13-10.1,6.73-6.73,10.1-16.04,10.1-27.94Z"/>
</svg>