<svg width="24" height="24" viewBox="0 0 16 16" fill="none" xmlns="http://www.w3.org/2000/svg">
<path d="M14.6667 2H1.33333C0.606667 2.02667 0.0266667 2.60667 0 3.33333V12.6667C0.0266667 13.3933 0.606667 13.9733 1.33333 14H14.6667C15.3933 13.9733 15.9733 13.3933 16 12.6667V3.33333C15.9733 2.60667 15.3933 2.02667 14.6667 2ZM14.6667 12.6667H1.33333V3.33333H14.6667V12.6667ZM9.33333 11.3333V10.5C9.33333 9.39333 7.10667 8.83333 6 8.83333C4.89333 8.83333 2.66667 9.39333 2.66667 10.5V11.3333H9.33333ZM6 4.66667C5.55797 4.66667 5.13405 4.84226 4.82149 5.15482C4.50893 5.46738 4.33333 5.89131 4.33333 6.33333C4.33333 6.5522 4.37644 6.76893 4.4602 6.97114C4.54396 7.17335 4.66672 7.35708 4.82149 7.51184C5.13405 7.82441 5.55797 8 6 8C6.21887 8 6.4356 7.95689 6.63781 7.87313C6.84002 7.78937 7.02375 7.66661 7.17851 7.51184C7.33328 7.35708 7.45604 7.17335 7.5398 6.97114C7.62356 6.76893 7.66667 6.5522 7.66667 6.33333C7.66667 6.11446 7.62356 5.89774 7.5398 5.69553C7.45604 5.49332 7.33328 5.30959 7.17851 5.15482C7.02375 5.00006 6.84002 4.87729 6.63781 4.79353C6.4356 4.70978 6.21887 4.66667 6 4.66667ZM9.33333 4.66667V5.33333H13.3333V4.66667H9.33333ZM9.33333 6V6.66667H13.3333V6H9.33333ZM9.33333 7.33333V8H12V7.33333H9.33333Z" fill="currentColor"/>
</svg>
