<?xml version="1.0" encoding="utf-8"?>
<!-- Generator: Adobe Illustrator 27.6.1, SVG Export Plug-In . SVG Version: 6.00 Build 0)  -->
<svg version="1.1" id="Layer_1" xmlns="http://www.w3.org/2000/svg" xmlns:xlink="http://www.w3.org/1999/xlink" x="0px" y="0px"
	 viewBox="0 0 578.4 235.6" style="enable-background:new 0 0 578.4 235.6; background-color:white; border-radius:5px; padding:5px" xml:space="preserve" >
<style type="text/css">
	.st0{fill:#5ACC29;}
	.st1{fill:#323132;}
</style>
<path class="st0" d="M396.7,167.9c-1-1-1.5-2.2-1.5-3.6v-101c0-1.6,0.5-2.8,1.5-3.7c1-0.9,2.2-1.4,3.6-1.4h18.2
	c1.4,0,2.6,0.5,3.6,1.5c1,1,1.5,2.2,1.5,3.6v101c0,1.4-0.5,2.6-1.5,3.6c-1,1-2.2,1.5-3.6,1.5h-18.2
	C398.9,169.4,397.7,168.9,396.7,167.9z"/>
<path class="st0" d="M395.8,38.5c-1-1-1.5-2.2-1.5-3.6V19.2c0-1.6,0.5-2.9,1.5-3.8c1-1,2.2-1.5,3.6-1.5h19.7c1.6,0,2.9,0.5,3.9,1.5
	c1,1,1.5,2.3,1.5,3.8v15.6c0,1.4-0.5,2.6-1.6,3.6c-1.1,1-2.3,1.5-3.7,1.5h-19.7C398,40,396.8,39.5,395.8,38.5z"/>
<g>
	<path class="st1" d="M12.1,220.2c-0.9-1-1.4-2.3-1.4-4v-13.6c0-1.5,0.5-2.9,1.4-3.9c0.9-1.1,2.2-1.6,3.8-1.6h5.7
		c6.1,0,10.2-1.7,12.3-5c2.1-3.3,3.2-8.2,3.2-14.7V63.2c0-1.7,0.5-3,1.5-4c1-1,2.3-1.5,3.7-1.5h19.2c1.6,0,2.9,0.5,3.8,1.5
		c0.9,1,1.4,2.4,1.4,4V178c0,13.9-3.6,24.6-10.7,32.2c-7.1,7.6-17.7,11.4-31.7,11.4h-8.5C14.3,221.7,13,221.2,12.1,220.2z"/>
	<path class="st1" d="M96.3,158.7c-7.6-8.6-11.3-20.3-11.3-35.3V63.3c0-1.6,0.5-2.8,1.5-3.7c1-0.9,2.2-1.4,3.6-1.4h19.3
		c1.4,0,2.6,0.5,3.6,1.5c1,1,1.5,2.2,1.5,3.6v58.8c0,17.5,7.6,26.3,22.9,26.3c7.4,0,13.3-2.4,17.6-7.1c4.4-4.7,6.5-11.1,6.5-19.3
		V63.3c0-1.6,0.5-2.8,1.5-3.7c1-0.9,2.2-1.4,3.6-1.4h19c1.6,0,2.8,0.5,3.7,1.4c0.9,0.9,1.4,2.2,1.4,3.7v101c0,1.4-0.5,2.6-1.4,3.6
		c-0.9,1-2.2,1.5-3.7,1.5H168c-1.4,0-2.6-0.5-3.6-1.5c-1-1-1.5-2.2-1.5-3.6v-8.8c-7.8,10.7-19.7,16-35.5,16
		C114.2,171.6,103.9,167.3,96.3,158.7z"/>
	<path class="st1" d="M212,167.9c-1-1-1.5-2.2-1.5-3.6v-101c0-1.6,0.5-2.8,1.5-3.7c1-0.9,2.2-1.4,3.6-1.4h16.9
		c1.6,0,2.8,0.5,3.7,1.4c0.9,0.9,1.4,2.2,1.4,3.7v7.3c7.7-9.7,18-14.5,31-14.5c15.8,0,26.9,6.3,33.2,19c3.4-5.7,8.3-10.3,14.5-13.8
		c6.3-3.5,13.1-5.2,20.3-5.2c11.7,0,21.3,4,28.7,12c7.4,8,11.1,19.6,11.1,34.9v61.4c0,1.4-0.5,2.6-1.4,3.6c-0.9,1-2.2,1.5-3.7,1.5
		h-17.8c-1.4,0-2.6-0.5-3.6-1.5c-1-1-1.5-2.2-1.5-3.6v-59.7c0-9-1.9-15.5-5.7-19.5c-3.8-4-8.7-6-14.9-6c-5.6,0-10.3,2-14.2,6.1
		c-3.9,4.1-5.9,10.5-5.9,19.4v59.7c0,1.4-0.5,2.6-1.4,3.6c-0.9,1-2.2,1.5-3.7,1.5h-18c-1.4,0-2.6-0.5-3.6-1.5c-1-1-1.5-2.2-1.5-3.6
		v-59.7c0-8.8-1.9-15.3-5.8-19.4c-3.9-4.1-8.8-6.1-14.8-6.1c-5.6,0-10.3,2-14.2,6.1c-3.9,4.1-5.9,10.5-5.9,19.4v59.7
		c0,1.4-0.5,2.6-1.4,3.6c-0.9,1-2.2,1.5-3.7,1.5h-18.2C214.3,169.4,213,168.9,212,167.9z"/>
	<path class="st1" d="M453.8,158.7c-9.1-8.6-14.1-20.4-14.8-35.5l-0.2-9.4l0.2-9.4c0.7-15,5.7-26.8,15-35.4
		c9.3-8.6,22.2-12.9,38.7-12.9c16.4,0,29.2,4.3,38.5,12.9c9.3,8.6,14.3,20.4,15,35.4c0.1,1.7,0.2,4.9,0.2,9.4c0,4.6-0.1,7.7-0.2,9.4
		c-0.7,15.1-5.6,27-14.8,35.5c-9.1,8.6-22,12.8-38.7,12.8C475.9,171.6,462.9,167.3,453.8,158.7z M510.1,142.9
		c4.1-4.7,6.2-11.6,6.5-20.8c0.1-1.4,0.2-4.2,0.2-8.3c0-4.1-0.1-6.9-0.2-8.3c-0.3-9.1-2.5-16.1-6.6-20.9c-4.1-4.8-9.9-7.2-17.3-7.2
		c-7.6,0-13.4,2.4-17.5,7.2c-4.1,4.8-6.3,11.7-6.6,20.9l-0.2,8.3l0.2,8.3c0.3,9.1,2.5,16,6.6,20.8c4.1,4.7,10,7.1,17.5,7.1
		C500.3,149.9,506.1,147.6,510.1,142.9z"/>
	<path class="st1" d="M38.1,38.5c-1-1-1.5-2.2-1.5-3.6V19.2c0-1.6,0.5-2.9,1.5-3.8c1-1,2.2-1.5,3.6-1.5h19.7c1.6,0,2.9,0.5,3.9,1.5
		c1,1,1.5,2.3,1.5,3.8v15.6c0,1.4-0.5,2.6-1.6,3.6c-1.1,1-2.3,1.5-3.7,1.5H41.7C40.3,40,39.1,39.5,38.1,38.5z"/>
	<g>
		<path class="st1" d="M558.6,149.8c5.6,0,10,4.4,10,10c0,5.7-4.4,10.1-10.1,10.1s-10.2-4.4-10.2-10.1
			C548.3,154.2,552.8,149.8,558.6,149.8L558.6,149.8z M558.4,151.6c-4.5,0-8,3.7-8,8.2c0,4.6,3.4,8.3,8.1,8.3
			c4.4,0.1,7.8-3.6,7.8-8.2C566.4,155.3,563,151.6,558.4,151.6L558.4,151.6z M556.7,165.3h-1.9v-10.5c1.1-0.2,2.2-0.3,3.6-0.3
			c1.8,0,2.6,0.3,3.3,0.8c0.6,0.4,1.1,1.3,1.1,2.3c0,1.3-0.9,2.1-2,2.4v0.1c0.9,0.4,1.4,1.2,1.7,2.6c0.3,1.6,0.6,2.2,0.8,2.6h-2
			c-0.3-0.4-0.6-1.3-0.9-2.7c-0.3-1.2-0.9-1.7-2.4-1.7h-1.3V165.3z M556.7,159.4h1.3c1.4,0,2.7-0.4,2.7-1.6c0-1-0.7-1.8-2.5-1.8
			c-0.8,0-1.2,0.1-1.5,0.1V159.4z"/>
	</g>
</g>
</svg>
