<svg width="16" height="16" viewBox="0 0 16 16" fill="none" xmlns="http://www.w3.org/2000/svg">
<g clip-path="url(#clip0_6123_2296)">
<path d="M14.6666 11.9999V14.6666H12V12.6666H9.99998V10.6666H7.99998L6.49331 9.15992C6.12665 9.27325 5.73998 9.33325 5.33331 9.33325C4.27245 9.33325 3.25503 8.91182 2.50489 8.16168C1.75474 7.41153 1.33331 6.39412 1.33331 5.33325C1.33331 4.27239 1.75474 3.25497 2.50489 2.50482C3.25503 1.75468 4.27245 1.33325 5.33331 1.33325C6.39418 1.33325 7.41159 1.75468 8.16174 2.50482C8.91189 3.25497 9.33331 4.27239 9.33331 5.33325C9.33331 5.73992 9.27331 6.12659 9.15998 6.49325L14.6666 11.9999ZM4.66665 3.33325C4.31302 3.33325 3.97389 3.47373 3.72384 3.72378C3.47379 3.97382 3.33331 4.31296 3.33331 4.66659C3.33331 5.02021 3.47379 5.35935 3.72384 5.60939C3.97389 5.85944 4.31302 5.99992 4.66665 5.99992C5.02027 5.99992 5.35941 5.85944 5.60946 5.60939C5.8595 5.35935 5.99998 5.02021 5.99998 4.66659C5.99998 4.31296 5.8595 3.97382 5.60946 3.72378C5.35941 3.47373 5.02027 3.33325 4.66665 3.33325Z" fill="#FF2E72"/>
</g>
<defs>
<clipPath id="clip0_6123_2296">
<rect width="16" height="16" fill="white"/>
</clipPath>
</defs>
</svg>
