<svg  viewBox="0 0 16 16" width="16" height="16" fill="none" xmlns="http://www.w3.org/2000/svg">
<g clip-path="url(#clip0_6829_3108)">
<path d="M7.99999 4.66666C6.15999 4.66666 4.66666 6.16 4.66666 8C4.66666 9.84 6.15999 11.3333 7.99999 11.3333C9.83999 11.3333 11.3333 9.84 11.3333 8C11.3333 6.16 9.83999 4.66666 7.99999 4.66666ZM1.33332 8.66666H2.66666C3.03332 8.66666 3.33332 8.36666 3.33332 8C3.33332 7.63333 3.03332 7.33333 2.66666 7.33333H1.33332C0.966656 7.33333 0.666656 7.63333 0.666656 8C0.666656 8.36666 0.966656 8.66666 1.33332 8.66666ZM13.3333 8.66666H14.6667C15.0333 8.66666 15.3333 8.36666 15.3333 8C15.3333 7.63333 15.0333 7.33333 14.6667 7.33333H13.3333C12.9667 7.33333 12.6667 7.63333 12.6667 8C12.6667 8.36666 12.9667 8.66666 13.3333 8.66666ZM7.33332 1.33333V2.66666C7.33332 3.03333 7.63332 3.33333 7.99999 3.33333C8.36666 3.33333 8.66666 3.03333 8.66666 2.66666V1.33333C8.66666 0.966664 8.36666 0.666664 7.99999 0.666664C7.63332 0.666664 7.33332 0.966664 7.33332 1.33333ZM7.33332 13.3333V14.6667C7.33332 15.0333 7.63332 15.3333 7.99999 15.3333C8.36666 15.3333 8.66666 15.0333 8.66666 14.6667V13.3333C8.66666 12.9667 8.36666 12.6667 7.99999 12.6667C7.63332 12.6667 7.33332 12.9667 7.33332 13.3333ZM3.99332 3.05333C3.73332 2.79333 3.30666 2.79333 3.05332 3.05333C2.79332 3.31333 2.79332 3.74 3.05332 3.99333L3.75999 4.7C4.01999 4.96 4.44666 4.96 4.69999 4.7C4.95332 4.44 4.95999 4.01333 4.69999 3.76L3.99332 3.05333ZM12.24 11.3C11.98 11.04 11.5533 11.04 11.3 11.3C11.04 11.56 11.04 11.9867 11.3 12.24L12.0067 12.9467C12.2667 13.2067 12.6933 13.2067 12.9467 12.9467C13.2067 12.6867 13.2067 12.26 12.9467 12.0067L12.24 11.3ZM12.9467 3.99333C13.2067 3.73333 13.2067 3.30666 12.9467 3.05333C12.6867 2.79333 12.26 2.79333 12.0067 3.05333L11.3 3.76C11.04 4.02 11.04 4.44666 11.3 4.7C11.56 4.95333 11.9867 4.96 12.24 4.7L12.9467 3.99333ZM4.69999 12.24C4.95999 11.98 4.95999 11.5533 4.69999 11.3C4.43999 11.04 4.01332 11.04 3.75999 11.3L3.05332 12.0067C2.79332 12.2667 2.79332 12.6933 3.05332 12.9467C3.31332 13.2 3.73999 13.2067 3.99332 12.9467L4.69999 12.24Z" fill="currentColor"/>
</g>
<defs>
<clipPath id="clip0_6829_3108">
<rect width="16" height="16" fill="white"/>
</clipPath>
</defs>
</svg>
