<svg viewBox="0 0 512 512" focusable="false" class="chakra-icon css-fi0ww0" xmlns="http://www.w3.org/2000/svg" style="enable-background:new 0 0 512 512; background-color:white; border-radius:5px; padding:5px"><g><path d="M380.812 177.693C380.655 177.694 380.501 177.654 380.364 177.579C376.628 175.698 373.399 174.9 369.507 174.9C365.674 174.9 362.016 175.793 358.689 177.579C358.222 177.826 357.638 177.655 357.366 177.199C357.113 176.743 357.288 176.154 357.755 175.907C361.374 173.95 365.343 173 369.507 173C373.671 173 377.29 173.893 381.259 175.85C381.746 176.135 381.921 176.705 381.668 177.161C381.493 177.503 381.181 177.693 380.812 177.693ZM352.968 187.668C352.767 187.667 352.571 187.607 352.404 187.497C351.996 187.193 351.859 186.604 352.171 186.167C354.097 183.507 356.549 181.417 359.467 179.954C365.616 176.876 373.399 176.857 379.528 179.935C382.446 181.398 384.898 183.45 386.824 186.11C387.135 186.528 387.019 187.136 386.591 187.44C386.143 187.744 385.54 187.649 385.229 187.25C383.477 184.818 381.259 182.937 378.633 181.626C373.048 178.833 365.908 178.833 360.343 181.645C357.696 182.975 355.478 184.875 353.727 187.25C353.572 187.535 353.28 187.668 352.968 187.668ZM365.129 210.601C364.876 210.601 364.643 210.506 364.448 210.316C362.756 208.663 361.841 207.599 360.537 205.3C359.195 202.963 358.494 200.113 358.494 197.054C358.494 191.411 363.436 186.813 369.507 186.813C375.578 186.813 380.52 191.411 380.52 197.054C380.52 197.306 380.418 197.548 380.235 197.726C380.052 197.904 379.805 198.004 379.547 198.004C379.289 198.004 379.042 197.904 378.859 197.726C378.769 197.638 378.697 197.533 378.648 197.418C378.6 197.302 378.574 197.179 378.574 197.054C378.574 192.456 374.508 188.713 369.507 188.713C364.507 188.713 360.44 192.456 360.44 197.054C360.44 199.79 361.063 202.317 362.25 204.35C363.495 206.554 364.351 207.485 365.849 208.967C366.027 209.148 366.127 209.39 366.127 209.642C366.127 209.893 366.027 210.135 365.849 210.316C365.616 210.506 365.382 210.601 365.129 210.601ZM379.08 207.086C376.765 207.086 374.722 206.516 373.048 205.395C370.149 203.476 368.418 200.36 368.418 197.054C368.418 196.802 368.52 196.56 368.703 196.382C368.885 196.204 369.133 196.104 369.391 196.104C369.648 196.104 369.896 196.204 370.078 196.382C370.169 196.47 370.24 196.575 370.289 196.69C370.338 196.806 370.363 196.929 370.363 197.054C370.363 199.733 371.764 202.26 374.138 203.818C375.52 204.73 377.134 205.167 379.08 205.167C379.547 205.167 380.325 205.11 381.104 204.977C381.629 204.882 382.154 205.224 382.232 205.756C382.329 206.25 381.979 206.763 381.435 206.858C380.325 207.067 379.353 207.086 379.08 207.086ZM375.169 211H374.916C371.823 210.126 369.799 209.005 367.678 206.972C364.954 204.35 363.456 200.816 363.456 197.054C363.456 193.976 366.141 191.468 369.449 191.468C372.757 191.468 375.442 193.976 375.442 197.054C375.442 199.087 377.29 200.74 379.489 200.74C381.726 200.74 383.536 199.087 383.536 197.054C383.536 189.891 377.212 184.077 369.429 184.077C363.904 184.077 358.806 187.079 356.568 191.734C355.809 193.273 355.42 195.078 355.42 197.054C355.42 198.536 355.556 200.873 356.724 203.913C356.918 204.407 356.665 204.958 356.16 205.129C355.653 205.3 355.089 205.053 354.914 204.578C353.941 202.089 353.494 199.6 353.494 197.054C353.494 194.774 353.941 192.703 354.817 190.898C357.405 185.597 363.145 182.158 369.429 182.158C378.263 182.158 385.482 188.827 385.482 197.035C385.482 200.113 382.797 202.621 379.489 202.621C376.181 202.621 373.496 200.113 373.496 197.035C373.496 195.002 371.686 193.349 369.449 193.349C367.211 193.349 365.402 195.002 365.402 197.035C365.402 200.284 366.686 203.324 369.04 205.604C370.889 207.39 372.659 208.378 375.403 209.1C375.928 209.252 376.22 209.784 376.084 210.278C375.986 210.715 375.578 211 375.169 211Z" fill="#EC4673"></path><path d="M124.172 222.312C126.203 222.312 128.609 222.25 131.391 222.125C134.172 222 135.984 221.906 136.828 221.844L137.203 228.734L131.062 229.812C130.875 231.531 130.781 233.391 130.781 235.391L133.828 277.344C133.891 277.969 134 278.609 134.156 279.266C134.344 279.891 134.5 280.422 134.625 280.859L135.094 282.875L141.516 283.484L141.047 290.469C140.203 290.406 138.203 290.312 135.047 290.188C131.891 290.062 128.125 290 123.75 290C122.094 290 120.188 290.062 118.031 290.188C115.906 290.312 114.516 290.406 113.859 290.469L113.391 284.047L119.812 282.875C120.062 279.938 120.203 277.125 120.234 274.438L118.688 240.266L101.016 290H92.2031L75 240.266L73.1719 274.438C73.1719 277.125 73.2969 279.938 73.5469 282.875L80.1094 283.484L79.5 290.469C78.9375 290.406 77.4219 290.312 74.9531 290.188C72.4844 290.062 69.0781 290 64.7344 290C63.0781 290 61.2031 290.062 59.1094 290.188C57.0156 290.312 55.6562 290.406 55.0312 290.469L54.5625 284.047L61.0781 282.875C61.3281 282.031 61.7812 280.188 62.4375 277.344L65.1094 235.391C65.1094 234.047 64.9219 232.219 64.5469 229.906L58.125 228.734L58.5938 221.844C59.3125 221.906 60.75 222 62.9062 222.125C65.0938 222.25 67.0469 222.312 68.7656 222.312H82.3125L84.2344 224.234C84.5469 225.391 85.1094 227.469 85.9219 230.469C86.7656 233.469 87.5781 236.219 88.3594 238.719L98.25 268.766L108.984 237.312C109.609 235.344 110.344 232.969 111.188 230.188C112.031 227.375 112.609 225.391 112.922 224.234L114.844 222.312H124.172ZM215.344 256.203C215.344 263.359 213.922 269.609 211.078 274.953C208.266 280.297 204.266 284.453 199.078 287.422C193.922 290.359 187.906 291.828 181.031 291.828C174.188 291.828 168.172 290.359 162.984 287.422C157.828 284.453 153.828 280.297 150.984 274.953C148.172 269.609 146.766 263.359 146.766 256.203C146.766 249.047 148.172 242.781 150.984 237.406C153.828 232.031 157.812 227.875 162.938 224.938C168.094 221.969 174.125 220.484 181.031 220.484C187.938 220.484 193.969 221.969 199.125 224.938C204.281 227.875 208.266 232.031 211.078 237.406C213.922 242.781 215.344 249.047 215.344 256.203ZM164.062 256.203C164.062 265.109 165.453 271.719 168.234 276.031C171.016 280.344 175.281 282.5 181.031 282.5C186.781 282.5 191.047 280.344 193.828 276.031C196.641 271.719 198.047 265.109 198.047 256.203C198.047 247.234 196.656 240.594 193.875 236.281C191.094 231.969 186.812 229.812 181.031 229.812C175.281 229.812 171.016 231.969 168.234 236.281C165.453 240.594 164.062 247.234 164.062 256.203ZM275.672 288.172C271.453 289.203 267.703 290 264.422 290.562C261.172 291.156 257.719 291.453 254.062 291.453C246.781 291.453 240.625 290 235.594 287.094C230.562 284.156 226.781 280.031 224.25 274.719C221.719 269.406 220.453 263.234 220.453 256.203C220.453 249.172 221.719 243 224.25 237.688C226.781 232.375 230.578 228.25 235.641 225.312C240.703 222.344 246.844 220.859 254.062 220.859C257.656 220.859 260.844 221.125 263.625 221.656C266.406 222.156 270.125 222.984 274.781 224.141L273.656 241.344L266.25 240.922L265.969 235.109C265.969 234.484 265.578 233.172 264.797 231.172C260.703 230.266 257.125 229.812 254.062 229.812C248.5 229.812 244.391 232.219 241.734 237.031C239.078 241.812 237.75 248.172 237.75 256.109C237.75 264.047 239.062 270.438 241.688 275.281C244.312 280.094 248.406 282.5 253.969 282.5C257.625 282.5 261.594 282.031 265.875 281.094C266 280.781 266.281 280.016 266.719 278.797C267.188 277.547 267.422 276.734 267.422 276.359L267.703 271.859L274.922 271.672L275.672 288.172ZM311.812 221.844C310.938 221.906 308.766 222 305.297 222.125C301.859 222.25 297.891 222.312 293.391 222.312C291.484 222.312 289.594 222.25 287.719 222.125C285.875 222 284.703 221.906 284.203 221.844L283.688 229.062L289.641 230.188C289.641 230.375 289.781 231.5 290.062 233.562C290.375 235.594 290.531 238.016 290.531 240.828V274.344C290.531 275.312 290.391 276.844 290.109 278.938C289.859 281 289.703 282.219 289.641 282.594L283.594 283.766L284.109 290.469C284.609 290.406 285.781 290.312 287.625 290.188C289.5 290.062 291.391 290 293.297 290C297.766 290 301.719 290.062 305.156 290.188C308.594 290.312 310.75 290.406 311.625 290.469L312.141 283.203L306.281 282.594C305.719 278.562 305.422 274.859 305.391 271.484V237.969C305.391 237.062 305.484 235.797 305.672 234.172C305.859 232.547 306.062 231.219 306.281 230.188L312.328 229.625L311.812 221.844ZM351.094 290.469C350.062 290.406 347.688 290.312 343.969 290.188C340.281 290.062 336.188 290 331.688 290C329.781 290 327.906 290.062 326.062 290.188C324.25 290.312 323.094 290.406 322.594 290.469L322.125 283.766L325.828 282.969C323.078 278.562 321.203 275.656 320.203 274.25C319.359 273.281 317.062 270.438 313.312 265.719C309.562 260.969 307.047 257.766 305.766 256.109L321.328 234.594L324.047 229.625L321.047 229.062L321.516 221.844C322.016 221.906 323.203 222 325.078 222.125C326.984 222.25 328.906 222.312 330.844 222.312C335.25 222.312 338.844 222.25 341.625 222.125C344.406 222 346.125 221.906 346.781 221.844L347.25 229.625L341.672 230.188C338.734 233 336.312 235.469 334.406 237.594L322.031 254.469L328.922 262.531L341.672 277.625C342.172 278.25 343.938 279.906 346.969 282.594L351.562 283.203L351.094 290.469Z" fill="#F6A3B9"></path><path d="M378.844 230.188C378.656 231.219 378.453 232.547 378.234 234.172C378.047 235.797 377.953 237.062 377.953 237.969V271.484C377.953 274.891 378.25 278.594 378.844 282.594L385.078 283.203L384.609 290.469C383.703 290.406 381.5 290.312 378 290.188C374.531 290.062 370.516 290 365.953 290C364.109 290 362.188 290.062 360.188 290.188C358.219 290.312 356.953 290.406 356.391 290.469L355.875 283.766L362.25 282.594C362.312 282.219 362.469 281 362.719 278.938C362.969 276.844 363.094 275.312 363.094 274.344V240.828C363.094 238.016 362.953 235.594 362.672 233.562C362.391 231.5 362.25 230.375 362.25 230.188L355.969 229.062L356.484 221.844C357.047 221.906 358.312 222 360.281 222.125C362.281 222.25 364.203 222.312 366.047 222.312C370.578 222.312 374.594 222.25 378.094 222.125C381.594 222 383.797 221.906 384.703 221.844L385.172 229.625L378.844 230.188ZM424.547 221.375C431.859 221.375 438.031 222.828 443.062 225.734C448.125 228.641 451.938 232.703 454.5 237.922C457.062 243.141 458.344 249.234 458.344 256.203C458.344 263.047 457.062 269.047 454.5 274.203C451.938 279.359 448.109 283.375 443.016 286.25C437.953 289.125 431.797 290.562 424.547 290.562C422.422 290.562 420.5 290.531 418.781 290.469C417.062 290.406 415.562 290.344 414.281 290.281C410.75 290.094 407.453 290 404.391 290C402.547 290 400.625 290.062 398.625 290.188C396.656 290.312 395.375 290.406 394.781 290.469L394.312 283.766L400.641 282.594C400.703 281.875 400.859 280.516 401.109 278.516C401.391 276.516 401.531 275.125 401.531 274.344V240.828C401.531 238.859 401.406 236.766 401.156 234.547C400.938 232.297 400.766 230.844 400.641 230.188L394.406 229.062L394.875 221.844C395.438 221.906 396.719 222 398.719 222.125C400.719 222.25 402.641 222.312 404.484 222.312C406.859 222.312 410.188 222.156 414.469 221.844C415.688 221.781 417.391 221.688 419.578 221.562C421.797 221.438 423.453 221.375 424.547 221.375ZM423.234 229.344C421.859 229.344 419.703 229.594 416.766 230.094C416.516 234.438 416.391 237.062 416.391 237.969V271.484C416.391 275.641 416.516 279.25 416.766 282.312C418.891 282.5 420.984 282.594 423.047 282.594C429.828 282.594 434.734 280.203 437.766 275.422C440.797 270.609 442.312 264.141 442.312 256.016C442.312 248.016 440.797 241.578 437.766 236.703C434.734 231.797 429.891 229.344 423.234 229.344Z" fill="#EC4673"></path><path d="M69.264 323.224C70.5013 323.224 71.632 323.299 72.656 323.448C73.7013 323.576 74.5867 323.853 75.312 324.28C76.0373 324.685 76.6027 325.283 77.008 326.072C77.4133 326.84 77.616 327.875 77.616 329.176C77.616 329.923 77.4987 330.584 77.264 331.16C77.0293 331.736 76.6987 332.237 76.272 332.664C75.8667 333.069 75.3867 333.4 74.832 333.656C74.2773 333.912 73.68 334.104 73.04 334.232C74.9813 334.403 76.4853 334.957 77.552 335.896C78.64 336.835 79.184 338.179 79.184 339.928C79.184 341.272 79.0027 342.403 78.64 343.32C78.2987 344.216 77.7547 344.941 77.008 345.496C76.2613 346.029 75.312 346.413 74.16 346.648C73.008 346.883 71.6427 347 70.064 347H55.184V344.376C57.0827 344.376 58.032 343.885 58.032 342.904V327.544C58.032 326.563 57.0827 326.072 55.184 326.072V323.224H69.264ZM64.528 335.896V343.576H68.656C69.3813 343.576 69.9787 343.48 70.448 343.288C70.9387 343.096 71.3227 342.829 71.6 342.488C71.8987 342.125 72.1013 341.709 72.208 341.24C72.336 340.749 72.4 340.216 72.4 339.64C72.4 338.403 72.112 337.475 71.536 336.856C70.96 336.216 70 335.896 68.656 335.896H64.528ZM64.528 326.872V333.176H67.824C68.9973 333.176 69.808 332.888 70.256 332.312C70.7253 331.736 70.96 330.84 70.96 329.624C70.96 327.789 69.9147 326.872 67.824 326.872H64.528ZM106.244 330.424L103.044 330.584C102.916 327.853 101.722 326.488 99.4603 326.488H93.4443V333.176H95.8763C96.8789 333.176 97.4763 331.981 97.6683 329.592H100.484L100.004 339.576H97.2523C97.0176 337.101 96.4843 335.864 95.6523 335.864H93.4443V343.736H98.3083C101.679 343.736 103.492 341.709 103.748 337.656L107.012 337.88L106.244 347H84.1003V344.376C85.9989 344.376 86.9483 343.885 86.9483 342.904V327.32C86.9483 326.339 85.9989 325.848 84.1003 325.848V323.224H106.244V330.424ZM131.199 331.224L128.319 331.512C128.191 330.552 127.913 329.731 127.487 329.048C127.06 328.344 126.516 327.779 125.855 327.352C125.215 326.925 124.468 326.616 123.615 326.424C122.783 326.211 121.876 326.104 120.895 326.104C120.468 326.104 119.999 326.136 119.487 326.2C118.975 326.243 118.495 326.36 118.047 326.552C117.599 326.723 117.225 326.989 116.927 327.352C116.628 327.693 116.479 328.163 116.479 328.76C116.479 329.272 116.639 329.699 116.959 330.04C117.3 330.36 117.748 330.637 118.303 330.872C118.879 331.085 119.54 331.267 120.287 331.416C121.033 331.565 121.812 331.715 122.623 331.864C123.455 331.992 124.297 332.152 125.151 332.344C126.025 332.536 126.868 332.771 127.679 333.048C129.215 333.603 130.409 334.413 131.263 335.48C132.116 336.547 132.543 337.997 132.543 339.832C132.543 341.091 132.319 342.2 131.871 343.16C131.423 344.12 130.793 344.92 129.983 345.56C129.172 346.2 128.201 346.68 127.071 347C125.961 347.341 124.745 347.512 123.423 347.512C121.844 347.512 120.553 347.363 119.551 347.064C118.569 346.765 117.727 346.424 117.023 346.04C116.532 345.763 116.095 345.624 115.711 345.624C115.412 345.624 115.145 345.763 114.911 346.04C114.676 346.317 114.484 346.637 114.335 347H111.423V338.552L114.303 338.36C114.473 340.237 115.273 341.667 116.703 342.648C118.132 343.608 120.041 344.088 122.431 344.088C123.092 344.088 123.721 344.045 124.319 343.96C124.937 343.875 125.471 343.715 125.919 343.48C126.388 343.245 126.751 342.915 127.007 342.488C127.284 342.061 127.423 341.507 127.423 340.824C127.423 340.099 127.135 339.555 126.559 339.192C125.983 338.808 125.236 338.509 124.319 338.296C123.423 338.061 122.409 337.869 121.279 337.72C120.148 337.571 119.028 337.347 117.919 337.048C115.7 336.472 114.068 335.608 113.023 334.456C111.999 333.283 111.487 331.619 111.487 329.464C111.487 328.568 111.636 327.715 111.935 326.904C112.233 326.093 112.713 325.379 113.375 324.76C114.036 324.141 114.879 323.651 115.903 323.288C116.927 322.904 118.164 322.712 119.615 322.712C121.151 322.712 122.409 322.851 123.391 323.128C124.372 323.405 125.193 323.715 125.855 324.056C126.089 324.184 126.292 324.28 126.463 324.344C126.655 324.408 126.847 324.44 127.039 324.44C127.487 324.44 127.817 324.344 128.031 324.152C128.265 323.939 128.5 323.629 128.735 323.224H131.199V331.224ZM161.099 333.016L158.315 333.112C158.208 330.701 157.824 328.995 157.163 327.992C156.523 326.989 155.584 326.488 154.347 326.488H152.171V342.904C152.171 343.885 153.131 344.376 155.051 344.376V347H142.795V344.376C144.693 344.376 145.643 343.885 145.643 342.904V326.488H143.435C142.197 326.488 141.259 326.989 140.619 327.992C139.979 328.995 139.595 330.701 139.467 333.112L136.683 333.016V323.224H161.099V333.016ZM199.584 330.424L196.896 330.584C196.661 327.853 195.509 326.488 193.44 326.488H187.328V333.816H189.952C190.976 333.816 191.584 332.579 191.776 330.104H194.432L193.952 340.728H191.36C191.125 338.168 190.581 336.888 189.728 336.888H187.328V342.904C187.328 343.885 188.523 344.376 190.912 344.376V347H177.984V344.376C179.883 344.376 180.832 343.885 180.832 342.904V327.32C180.832 326.339 179.883 325.848 177.984 325.848V323.224H199.584V330.424ZM216.033 322.712C217.761 322.712 219.351 322.925 220.801 323.352C222.273 323.757 223.532 324.44 224.577 325.4C225.644 326.36 226.465 327.64 227.041 329.24C227.639 330.819 227.937 332.771 227.937 335.096C227.937 337.016 227.681 338.744 227.169 340.28C226.679 341.816 225.921 343.117 224.897 344.184C223.873 345.251 222.583 346.072 221.025 346.648C219.489 347.224 217.665 347.512 215.553 347.512C213.825 347.512 212.236 347.309 210.785 346.904C209.335 346.499 208.076 345.837 207.009 344.92C205.964 343.981 205.143 342.755 204.545 341.24C203.969 339.704 203.681 337.827 203.681 335.608C203.681 333.603 203.905 331.8 204.353 330.2C204.823 328.6 205.548 327.245 206.529 326.136C207.532 325.027 208.812 324.184 210.369 323.608C211.927 323.011 213.815 322.712 216.033 322.712ZM216.193 326.104C214.145 326.104 212.62 326.744 211.617 328.024C210.636 329.283 210.145 331.32 210.145 334.136C210.145 336.184 210.273 337.859 210.529 339.16C210.785 340.44 211.148 341.443 211.617 342.168C212.087 342.893 212.652 343.395 213.313 343.672C213.996 343.928 214.743 344.056 215.553 344.056C216.62 344.056 217.527 343.907 218.273 343.608C219.041 343.288 219.66 342.787 220.129 342.104C220.62 341.4 220.972 340.493 221.185 339.384C221.42 338.275 221.537 336.92 221.537 335.32C221.537 333.464 221.409 331.949 221.153 330.776C220.897 329.581 220.535 328.643 220.065 327.96C219.596 327.256 219.031 326.776 218.369 326.52C217.708 326.243 216.983 326.104 216.193 326.104ZM258.787 342.808C258.787 343.427 258.691 344.013 258.499 344.568C258.307 345.101 258.008 345.571 257.603 345.976C257.219 346.36 256.707 346.669 256.067 346.904C255.448 347.117 254.701 347.224 253.827 347.224C252.803 347.224 251.928 347.096 251.203 346.84C250.499 346.584 249.923 346.232 249.475 345.784C249.027 345.336 248.696 344.813 248.483 344.216C248.269 343.619 248.163 342.979 248.163 342.296V340.216C248.163 339.384 248.109 338.691 248.003 338.136C247.917 337.581 247.757 337.144 247.523 336.824C247.288 336.483 246.979 336.237 246.595 336.088C246.211 335.939 245.72 335.864 245.123 335.864H241.411V342.904C241.411 343.885 242.595 344.376 244.963 344.376V347H232.067V344.376C233.965 344.376 234.915 343.885 234.915 342.904V327.32C234.915 326.339 233.965 325.848 232.067 325.848V323.224H247.267C248.312 323.224 249.336 323.299 250.339 323.448C251.341 323.576 252.227 323.853 252.995 324.28C253.784 324.707 254.413 325.315 254.883 326.104C255.352 326.872 255.587 327.896 255.587 329.176C255.587 330.008 255.459 330.744 255.203 331.384C254.947 332.003 254.605 332.536 254.179 332.984C253.773 333.432 253.304 333.795 252.771 334.072C252.237 334.349 251.683 334.552 251.107 334.68C251.683 334.851 252.184 335.085 252.611 335.384C253.059 335.661 253.432 336.024 253.731 336.472C254.051 336.92 254.285 337.475 254.435 338.136C254.605 338.776 254.691 339.533 254.691 340.408V342.968C254.691 343.437 254.787 343.789 254.979 344.024C255.171 344.237 255.416 344.344 255.715 344.344C256.035 344.344 256.291 344.237 256.483 344.024C256.675 343.789 256.771 343.437 256.771 342.968V341.432H258.787V342.808ZM241.411 326.648V333.176H245.507C246.701 333.176 247.565 332.92 248.099 332.408C248.653 331.875 248.931 330.947 248.931 329.624C248.931 328.643 248.664 327.907 248.131 327.416C247.597 326.904 246.723 326.648 245.507 326.648H241.411ZM299.784 333.016L297 333.112C296.893 330.701 296.509 328.995 295.848 327.992C295.208 326.989 294.269 326.488 293.032 326.488H290.856V342.904C290.856 343.885 291.816 344.376 293.736 344.376V347H281.48V344.376C283.378 344.376 284.328 343.885 284.328 342.904V326.488H282.12C280.882 326.488 279.944 326.989 279.304 327.992C278.664 328.995 278.28 330.701 278.152 333.112L275.368 333.016V323.224H299.784V333.016ZM326.022 330.424L322.822 330.584C322.694 327.853 321.499 326.488 319.238 326.488H313.222V333.176H315.654C316.656 333.176 317.254 331.981 317.446 329.592H320.262L319.782 339.576H317.03C316.795 337.101 316.262 335.864 315.43 335.864H313.222V343.736H318.086C321.456 343.736 323.27 341.709 323.526 337.656L326.79 337.88L326.022 347H303.878V344.376C305.776 344.376 306.726 343.885 306.726 342.904V327.32C306.726 326.339 305.776 325.848 303.878 325.848V323.224H326.022V330.424ZM350.976 331.224L348.096 331.512C347.968 330.552 347.691 329.731 347.264 329.048C346.838 328.344 346.294 327.779 345.632 327.352C344.992 326.925 344.246 326.616 343.392 326.424C342.56 326.211 341.654 326.104 340.672 326.104C340.246 326.104 339.776 326.136 339.264 326.2C338.752 326.243 338.272 326.36 337.824 326.552C337.376 326.723 337.003 326.989 336.704 327.352C336.406 327.693 336.256 328.163 336.256 328.76C336.256 329.272 336.416 329.699 336.736 330.04C337.078 330.36 337.526 330.637 338.08 330.872C338.656 331.085 339.318 331.267 340.064 331.416C340.811 331.565 341.59 331.715 342.4 331.864C343.232 331.992 344.075 332.152 344.928 332.344C345.803 332.536 346.646 332.771 347.456 333.048C348.992 333.603 350.187 334.413 351.04 335.48C351.894 336.547 352.32 337.997 352.32 339.832C352.32 341.091 352.096 342.2 351.648 343.16C351.2 344.12 350.571 344.92 349.76 345.56C348.95 346.2 347.979 346.68 346.848 347C345.739 347.341 344.523 347.512 343.2 347.512C341.622 347.512 340.331 347.363 339.328 347.064C338.347 346.765 337.504 346.424 336.8 346.04C336.31 345.763 335.872 345.624 335.488 345.624C335.19 345.624 334.923 345.763 334.688 346.04C334.454 346.317 334.262 346.637 334.112 347H331.2V338.552L334.08 338.36C334.251 340.237 335.051 341.667 336.48 342.648C337.91 343.608 339.819 344.088 342.208 344.088C342.87 344.088 343.499 344.045 344.096 343.96C344.715 343.875 345.248 343.715 345.696 343.48C346.166 343.245 346.528 342.915 346.784 342.488C347.062 342.061 347.2 341.507 347.2 340.824C347.2 340.099 346.912 339.555 346.336 339.192C345.76 338.808 345.014 338.509 344.096 338.296C343.2 338.061 342.187 337.869 341.056 337.72C339.926 337.571 338.806 337.347 337.696 337.048C335.478 336.472 333.846 335.608 332.8 334.456C331.776 333.283 331.264 331.619 331.264 329.464C331.264 328.568 331.414 327.715 331.712 326.904C332.011 326.093 332.491 325.379 333.152 324.76C333.814 324.141 334.656 323.651 335.68 323.288C336.704 322.904 337.942 322.712 339.392 322.712C340.928 322.712 342.187 322.851 343.168 323.128C344.15 323.405 344.971 323.715 345.632 324.056C345.867 324.184 346.07 324.28 346.24 324.344C346.432 324.408 346.624 324.44 346.816 324.44C347.264 324.44 347.595 324.344 347.808 324.152C348.043 323.939 348.278 323.629 348.512 323.224H350.976V331.224ZM380.876 333.016L378.092 333.112C377.986 330.701 377.602 328.995 376.94 327.992C376.3 326.989 375.362 326.488 374.124 326.488H371.948V342.904C371.948 343.885 372.908 344.376 374.828 344.376V347H362.572V344.376C364.471 344.376 365.42 343.885 365.42 342.904V326.488H363.212C361.975 326.488 361.036 326.989 360.396 327.992C359.756 328.995 359.372 330.701 359.244 333.112L356.46 333.016V323.224H380.876V333.016ZM397.514 325.848C395.616 325.848 394.666 326.339 394.666 327.32V342.904C394.666 343.885 395.616 344.376 397.514 344.376V347H385.29V344.376C387.21 344.376 388.17 343.885 388.17 342.904V327.32C388.17 326.339 387.21 325.848 385.29 325.848V323.224H397.514V325.848ZM428.86 325.848C426.962 325.848 426.012 326.339 426.012 327.32V347H418.268L408.252 329.08V342.904C408.252 343.885 409.202 344.376 411.1 344.376V347H401.98V344.376C403.879 344.376 404.828 343.885 404.828 342.904V327.32C404.828 326.339 403.879 325.848 401.98 325.848V323.224H412.38L422.62 341.592V327.32C422.62 326.339 421.671 325.848 419.772 325.848V323.224H428.86V325.848ZM455.142 331.032L451.91 331.32C451.59 329.656 450.929 328.365 449.926 327.448C448.945 326.509 447.644 326.04 446.022 326.04C443.633 326.04 441.926 326.829 440.902 328.408C439.878 329.987 439.366 332.205 439.366 335.064C439.366 336.877 439.516 338.36 439.814 339.512C440.113 340.643 440.54 341.528 441.094 342.168C441.67 342.808 442.353 343.245 443.142 343.48C443.932 343.715 444.806 343.832 445.766 343.832C446.47 343.832 447.132 343.757 447.75 343.608C448.39 343.437 448.956 343.213 449.446 342.936C449.937 342.637 450.321 342.285 450.598 341.88C450.897 341.453 451.046 340.973 451.046 340.44V338.904C451.046 337.923 450.086 337.432 448.166 337.432V334.808H458.694V337.432C456.774 337.432 455.814 337.923 455.814 338.904V347H451.846L451.174 345.016C450.94 345.315 450.609 345.613 450.182 345.912C449.777 346.211 449.265 346.477 448.646 346.712C448.049 346.947 447.345 347.139 446.534 347.288C445.745 347.437 444.86 347.512 443.878 347.512C442.47 347.512 441.094 347.299 439.75 346.872C438.406 346.445 437.201 345.752 436.134 344.792C435.089 343.811 434.246 342.531 433.606 340.952C432.966 339.352 432.646 337.4 432.646 335.096C432.646 332.899 432.956 331.021 433.574 329.464C434.214 327.907 435.068 326.627 436.134 325.624C437.201 324.621 438.438 323.885 439.846 323.416C441.254 322.947 442.726 322.712 444.262 322.712C445.926 322.712 447.345 322.915 448.518 323.32C449.692 323.704 450.62 324.216 451.302 324.856L452.006 323.224H455.142V331.032Z" fill="#F27E9D"></path></g></svg>