<svg width="171
" height="47" viewBox="0 0 171
 47" fill="none" xmlns="http://www.w3.org/2000/svg" style="background-color:white; border-radius:5px; padding:5px">
<path d="M70.5521 9.17517H76.8075V37.205H70.5521L57.2007 19.6421V37.205H50.9453V9.17517H56.8026L70.5609 27.2247V9.17517H70.5521Z" fill="#6125C3"/>
<path d="M104.033 9.17517V14.7758H90.0708V20.5535H102.626V25.8621H90.0708V31.6752H104.466V37.205H83.8154V9.17517H104.024H104.033Z" fill="#6125C3"/>
<path d="M121.949 14.59V37.205H115.693V14.59H107.73V9.17517H129.85V14.59H121.887H121.949Z" fill="#6125C3"/>
<path d="M134.018 9.17517H140.273V20.6773L150.89 9.17517H158.632L147.484 21.5621C148.445 22.9011 150.215 25.3932 152.793 29.0385C155.37 32.6838 157.308 35.403 158.606 37.1962H151.306L143.087 26.1276L140.282 29.2597V37.2227H134.026V9.17517H134.018Z" fill="#2BC4BB"/>
<path d="M38.9658 33.7455L19.4829 45L0 33.7455V11.2544" fill="url(#paint0_linear_696_685)"/>
<path d="M0 11.2544L19.4829 0L38.9658 11.2544V33.7455" fill="#2BC4BB"/>
<path d="M162.419 9.17517H168.674V37.205H162.419V9.17517Z" fill="#2BC4BB"/>
<defs>
<linearGradient id="paint0_linear_696_685" x1="37.3112" y1="28.1272" x2="-0.185804" y2="28.1272" gradientUnits="userSpaceOnUse">
<stop stop-color="#38D0C7"/>
<stop offset="1" stop-color="#4E25C3"/>
</linearGradient>
</defs>
</svg>
