<svg width="154" height="20" viewBox="0 0 154 20" fill="none" xmlns="http://www.w3.org/2000/svg">
<path fill-rule="evenodd" clip-rule="evenodd" d="M19.5467 16.638C18.7284 15.7639 18.0962 14.7594 17.6506 13.6268L17.6499 13.6253C17.2039 12.473 16.9817 11.2481 16.9817 9.953C16.9817 8.64055 17.2037 7.41496 17.6506 6.27916C18.0962 5.14657 18.7284 4.14213 19.5467 3.26797L19.549 3.26553C20.3884 2.38881 21.386 1.70871 22.5387 1.22534C23.6955 0.740248 24.9685 0.5 26.3537 0.5C27.739 0.5 29.012 0.740248 30.1687 1.22534C31.3214 1.70871 32.3106 2.38906 33.1325 3.26667C33.9691 4.14079 34.6109 5.14563 35.0569 6.27916C35.5037 7.41496 35.7257 8.64055 35.7257 9.953C35.7257 11.2481 35.5035 12.473 35.0575 13.6253L35.0569 13.6268C34.6109 14.7604 33.9691 15.7652 33.1325 16.6393C32.3106 17.5169 31.3214 18.1973 30.1687 18.6807C29.012 19.1658 27.739 19.406 26.3537 19.406C24.9685 19.406 23.6955 19.1658 22.5387 18.6807C21.386 18.1973 20.3884 17.5172 19.549 16.6405L19.5467 16.638ZM29.9485 3.99789C28.9602 3.38448 27.7664 3.071 26.3537 3.071C24.96 3.071 23.7649 3.38408 22.757 3.99909L22.7538 4.00104C21.7391 4.60296 20.9592 5.41715 20.4093 6.44747C19.8763 7.47993 19.6067 8.64628 19.6067 9.953C19.6067 11.2406 19.8758 12.4076 20.4098 13.4594C20.9598 14.4895 21.74 15.313 22.7554 15.9329C23.7635 16.5305 24.9593 16.835 26.3537 16.835C27.7675 16.835 28.9623 16.53 29.9509 15.9336C30.9669 15.3136 31.7381 14.4901 32.2702 13.4603L32.271 13.4586C32.8228 12.4068 33.1007 11.2401 33.1007 9.953C33.1007 8.64707 32.8225 7.48138 32.272 6.44918L32.2702 6.44572C31.7384 5.41647 30.9681 4.60281 29.9537 4.00102L29.9485 3.99789ZM43.6907 0.715999V16.646H53.4377V19.19H41.0657V0.715999H43.6907ZM60.7936 19.19V11.91L53.0138 0.715999H56.2014L62.0926 9.18466L67.9839 0.715999H71.1703L63.4186 11.9097V19.19H60.7936ZM78.0571 0.715999L84.3046 8.99331L90.4467 0.715999H93.2467V19.19H90.6217V4.96837L84.3086 13.0852L77.8837 4.95729V19.19H75.2587V0.715999H78.0571ZM99.7116 0.715999H113.461V3.26H102.337V8.654H112.273V11.225H102.337V16.646H113.461V19.19H99.7116V0.715999ZM121.127 18.68L121.123 18.6784C119.982 18.1734 119.105 17.4734 118.51 16.5712L118.507 16.5674C117.94 15.6779 117.61 14.6767 117.516 13.5693L117.489 13.244H120.203L120.221 13.5253C120.271 14.3287 120.536 14.9591 120.999 15.4399C121.48 15.9191 122.116 16.283 122.922 16.5232C123.755 16.7661 124.671 16.889 125.672 16.889C127.153 16.889 128.29 16.6328 129.109 16.1489C129.899 15.6641 130.286 14.97 130.286 14.03C130.286 13.4814 130.095 13.0642 129.718 12.7477L129.708 12.7394C129.315 12.379 128.771 12.0727 128.059 11.8299L128.057 11.8292C127.349 11.5814 126.568 11.3593 125.713 11.1634L125.708 11.1621C124.842 10.9457 123.968 10.7203 123.084 10.486L123.083 10.4856C122.202 10.2471 121.383 9.94364 120.627 9.57463L120.624 9.57334C119.87 9.19647 119.25 8.71171 118.77 8.11632L118.763 8.10811C118.284 7.46939 118.055 6.67299 118.055 5.741C118.055 4.19423 118.653 2.92089 119.839 1.94531L119.841 1.94382C121.05 0.964914 122.812 0.5 125.078 0.5C126.69 0.5 128.042 0.746637 129.12 1.25709C130.185 1.74307 130.998 2.39678 131.539 3.22678C132.089 4.04292 132.395 4.93049 132.452 5.88503L132.471 6.203H129.807L129.776 5.93874C129.678 5.12729 129.276 4.44086 128.54 3.87239L128.537 3.8698C127.822 3.30114 126.687 2.99 125.078 2.99C124.087 2.99 123.301 3.08782 122.711 3.2732C122.108 3.46268 121.668 3.70512 121.37 3.98779C121.074 4.26687 120.88 4.55151 120.772 4.83924C120.673 5.15425 120.626 5.44536 120.626 5.714C120.626 6.22263 120.806 6.62379 121.167 6.94191C121.582 7.27272 122.131 7.56248 122.824 7.80537C123.552 8.03587 124.352 8.24925 125.225 8.44529C126.112 8.64439 126.99 8.87062 127.859 9.12397C128.757 9.3625 129.577 9.67517 130.317 10.0633C131.089 10.4406 131.712 10.9359 132.175 11.553C132.673 12.1926 132.911 12.9993 132.911 13.949C132.911 15.694 132.241 17.0664 130.896 18.0271L130.893 18.0288C129.566 18.9582 127.77 19.406 125.537 19.406C123.751 19.406 122.275 19.1695 121.127 18.68ZM138.15 0.715999H140.775V8.654H150.57V0.715999H153.195V19.19H150.57V11.225H140.775V19.19H138.15V0.715999Z" fill="url(#paint0_linear_5974_1055)"/>
<path d="M6.27041 9.62055C7.67231 9.62055 8.64971 9.33191 9.24995 8.79914C9.85172 8.24684 10.1654 7.45251 10.1654 6.38315C10.1654 5.28274 9.84478 4.33517 9.25117 3.80752C8.65103 3.27406 7.67325 2.98503 6.27041 2.98503H7.97642e-06V0.500031H6.59921C7.84869 0.500031 8.94227 0.733013 9.87298 1.20732C10.8203 1.66251 11.5637 2.31938 12.0974 3.17705C12.636 4.04278 12.897 5.22358 12.897 6.38315C12.897 7.54891 12.6334 8.56701 12.0974 9.42854C11.5637 10.2861 10.8206 10.9518 9.87376 11.4253L9.87218 11.426C8.94173 11.8818 7.84853 12.1056 6.59921 12.1056H2.62201V19.1747H7.97642e-06V9.62055H6.27041Z" fill="url(#paint1_linear_5974_1055)"/>
<defs>
<linearGradient id="paint0_linear_5974_1055" x1="66.1828" y1="0.140786" x2="66.12" y2="36.1308" gradientUnits="userSpaceOnUse">
<stop stop-color="#FF2E72"/>
<stop offset="0.934908" stop-color="#4A125E"/>
</linearGradient>
<linearGradient id="paint1_linear_5974_1055" x1="75.8204" y1="0.140816" x2="75.7497" y2="36.1308" gradientUnits="userSpaceOnUse">
<stop stop-color="#FF2E72"/>
<stop offset="0.934908" stop-color="#4A125E"/>
</linearGradient>
</defs>
</svg>
