<svg width="30" height="32" viewBox="0 0 30 32" fill="none" xmlns="http://www.w3.org/2000/svg">
<path fill-rule="evenodd" clip-rule="evenodd" d="M9.29954 4.80849C9.43923 4.88765 9.5248 5.03653 9.52288 5.19708L9.43623 12.4404C9.43436 12.5965 9.35004 12.7399 9.21456 12.8175L3.86043 15.8824L9.22518 18.9599C9.3621 19.0384 9.44654 19.1842 9.44654 19.3421V25.5247L14.8048 22.3882C14.9426 22.3075 15.1132 22.3077 15.2508 22.3887L20.5626 25.5156V19.3406C20.5626 19.0973 20.7599 18.9 21.0032 18.9C21.2465 18.9 21.4438 19.0973 21.4438 19.3406V25.5408L26.6075 22.5919V16.1381L20.7778 12.818C20.5664 12.6975 20.4926 12.4285 20.613 12.2171C20.7334 12.0056 21.0025 11.9318 21.2139 12.0522L27.2661 15.4991C27.4037 15.5775 27.4887 15.7236 27.4887 15.882V22.8477C27.4887 23.0058 27.4039 23.1519 27.2666 23.2303L21.2334 26.6757C21.2125 26.6877 21.1908 26.6978 21.1686 26.7061L15.2415 30.246C15.1027 30.3289 14.9296 30.3291 14.7906 30.2466L8.7723 26.6723L2.754 23.2286C2.61685 23.1502 2.53223 23.0042 2.53223 22.8462V8.95151C2.53223 8.79851 2.6116 8.65646 2.7419 8.57627L8.85141 4.81658C8.98815 4.73243 9.15985 4.72933 9.29954 4.80849ZM9.86873 26.2986L15.015 29.3549L20.1439 26.2916L15.0267 23.2793L9.86873 26.2986ZM8.56536 25.5386L3.41341 22.5907V16.6418L8.56536 19.5973V25.5386ZM3.41341 15.1229V9.1977L8.6322 5.98614L8.55813 12.1779L3.41341 15.1229Z" fill="#170087"/>
<path fill-rule="evenodd" clip-rule="evenodd" d="M8.60387 12.2167C8.72445 12.0054 8.99353 11.9318 9.20489 12.0524L15.2263 15.4875C15.3633 15.5657 15.4481 15.7112 15.4485 15.869C15.449 16.0268 15.365 16.1727 15.2284 16.2517L9.22166 19.722C9.01097 19.8438 8.74149 19.7717 8.61976 19.561C8.49803 19.3503 8.57015 19.0808 8.78084 18.9591L14.123 15.8726L8.76824 12.8177C8.55689 12.6972 8.48329 12.4281 8.60387 12.2167Z" fill="#170087"/>
<path fill-rule="evenodd" clip-rule="evenodd" d="M14.7925 1.62533C14.9271 1.55316 15.0894 1.55579 15.2215 1.63228L21.1645 5.07254C21.1819 5.07979 21.199 5.0882 21.2157 5.09779L27.2371 8.56669C27.3736 8.64534 27.4577 8.79091 27.4577 8.94846V15.8789C27.4577 16.0367 27.3734 16.1824 27.2366 16.2609L21.2153 19.721C21.0789 19.7994 20.9111 19.7991 20.775 19.7203L15.4487 16.637V22.7683C15.4487 23.0116 15.2515 23.2089 15.0081 23.2089C14.7648 23.2089 14.5675 23.0116 14.5675 22.7683V15.9488C14.5627 15.9226 14.5602 15.8958 14.5602 15.8687V9.15546L8.83926 5.5664C8.70628 5.48297 8.62774 5.3351 8.63307 5.17821C8.6384 5.02132 8.7268 4.87912 8.86513 4.80492L14.7925 1.62533ZM15.4414 8.91934V8.91028H15.0017L15.2194 9.2928L15.2491 9.27583M15.4414 9.16594V8.91934V9.16594ZM15.4414 9.16594V15.1092L20.5552 12.1754V6.24325L15.4414 9.16594ZM21.4363 6.24185V12.4306C21.4363 12.5884 21.3519 12.7342 21.215 12.8127L15.8843 15.871L20.9966 18.8304L26.5765 15.624V9.20311L21.4363 6.24185ZM20.1121 5.48152L15.0101 8.39748L9.94994 5.22296L14.9926 2.51795L20.1121 5.48152Z" fill="#170087"/>
<path d="M15.0081 4.02405C16.1193 4.02405 17.0201 3.12324 17.0201 2.01202C17.0201 0.900814 16.1193 0 15.0081 0C13.8969 0 12.9961 0.900814 12.9961 2.01202C12.9961 3.12324 13.8969 4.02405 15.0081 4.02405Z" fill="url(#paint0_linear_5982_7420)"/>
<path d="M15.0099 11.0413C16.1868 11.0413 17.1409 10.0872 17.1409 8.91028C17.1409 7.73337 16.1868 6.7793 15.0099 6.7793C13.833 6.7793 12.8789 7.73337 12.8789 8.91028C12.8789 10.0872 13.833 11.0413 15.0099 11.0413Z" fill="url(#paint1_linear_5982_7420)"/>
<path d="M21.0029 7.56199C22.1506 7.56199 23.081 6.63158 23.081 5.48387C23.081 4.33616 22.1506 3.40576 21.0029 3.40576C19.8552 3.40576 18.9248 4.33616 18.9248 5.48387C18.9248 6.63158 19.8552 7.56199 21.0029 7.56199Z" fill="url(#paint2_linear_5982_7420)"/>
<path d="M9.00194 7.56199C10.1497 7.56199 11.0801 6.63158 11.0801 5.48387C11.0801 4.33616 10.1497 3.40576 9.00194 3.40576C7.85423 3.40576 6.92383 4.33616 6.92383 5.48387C6.92383 6.63158 7.85423 7.56199 9.00194 7.56199Z" fill="url(#paint3_linear_5982_7420)"/>
<path d="M20.9962 14.5748C22.178 14.5748 23.136 13.6167 23.136 12.435C23.136 11.2532 22.178 10.2952 20.9962 10.2952C19.8145 10.2952 18.8564 11.2532 18.8564 12.435C18.8564 13.6167 19.8145 14.5748 20.9962 14.5748Z" fill="url(#paint4_linear_5982_7420)"/>
<path d="M8.99429 14.5748C10.1761 14.5748 11.1341 13.6167 11.1341 12.435C11.1341 11.2532 10.1761 10.2952 8.99429 10.2952C7.81251 10.2952 6.85449 11.2532 6.85449 12.435C6.85449 13.6167 7.81251 14.5748 8.99429 14.5748Z" fill="url(#paint5_linear_5982_7420)"/>
<path d="M15.0081 17.882C16.1193 17.882 17.0201 16.9811 17.0201 15.8699C17.0201 14.7587 16.1193 13.8579 15.0081 13.8579C13.8969 13.8579 12.9961 14.7587 12.9961 15.8699C12.9961 16.9811 13.8969 17.882 15.0081 17.882Z" fill="url(#paint6_linear_5982_7420)"/>
<path d="M15.0099 24.8992C16.1868 24.8992 17.1409 23.9451 17.1409 22.7682C17.1409 21.5913 16.1868 20.6372 15.0099 20.6372C13.833 20.6372 12.8789 21.5913 12.8789 22.7682C12.8789 23.9451 13.833 24.8992 15.0099 24.8992Z" fill="url(#paint7_linear_5982_7420)"/>
<path d="M21.0029 21.4199C22.1506 21.4199 23.081 20.4895 23.081 19.3418C23.081 18.1941 22.1506 17.2637 21.0029 17.2637C19.8552 17.2637 18.9248 18.1941 18.9248 19.3418C18.9248 20.4895 19.8552 21.4199 21.0029 21.4199Z" fill="url(#paint8_linear_5982_7420)"/>
<path d="M9.00194 21.4199C10.1497 21.4199 11.0801 20.4895 11.0801 19.3418C11.0801 18.1941 10.1497 17.2637 9.00194 17.2637C7.85423 17.2637 6.92383 18.1941 6.92383 19.3418C6.92383 20.4895 7.85423 21.4199 9.00194 21.4199Z" fill="url(#paint9_linear_5982_7420)"/>
<path d="M20.9962 28.4327C22.178 28.4327 23.136 27.4746 23.136 26.2929C23.136 25.1111 22.178 24.1531 20.9962 24.1531C19.8145 24.1531 18.8564 25.1111 18.8564 26.2929C18.8564 27.4746 19.8145 28.4327 20.9962 28.4327Z" fill="url(#paint10_linear_5982_7420)"/>
<path d="M8.99429 28.4327C10.1761 28.4327 11.1341 27.4746 11.1341 26.2929C11.1341 25.1111 10.1761 24.1531 8.99429 24.1531C7.81251 24.1531 6.85449 25.1111 6.85449 26.2929C6.85449 27.4746 7.81251 28.4327 8.99429 28.4327Z" fill="url(#paint11_linear_5982_7420)"/>
<path d="M15.0099 32C16.1868 32 17.1409 31.0459 17.1409 29.869C17.1409 28.6921 16.1868 27.738 15.0099 27.738C13.833 27.738 12.8789 28.6921 12.8789 29.869C12.8789 31.0459 13.833 32 15.0099 32Z" fill="url(#paint12_linear_5982_7420)"/>
<path d="M27.0294 11.0911C28.2112 11.0911 29.1692 10.1331 29.1692 8.95132C29.1692 7.76954 28.2112 6.81152 27.0294 6.81152C25.8477 6.81152 24.8896 7.76954 24.8896 8.95132C24.8896 10.1331 25.8477 11.0911 27.0294 11.0911Z" fill="url(#paint13_linear_5982_7420)"/>
<path d="M27.0294 18.0215C28.2112 18.0215 29.1692 17.0635 29.1692 15.8817C29.1692 14.7 28.2112 13.7419 27.0294 13.7419C25.8477 13.7419 24.8896 14.7 24.8896 15.8817C24.8896 17.0635 25.8477 18.0215 27.0294 18.0215Z" fill="url(#paint14_linear_5982_7420)"/>
<path d="M27.0294 24.9874C28.2112 24.9874 29.1692 24.0293 29.1692 22.8476C29.1692 21.6658 28.2112 20.7078 27.0294 20.7078C25.8477 20.7078 24.8896 21.6658 24.8896 22.8476C24.8896 24.0293 25.8477 24.9874 27.0294 24.9874Z" fill="url(#paint15_linear_5982_7420)"/>
<path d="M2.96987 11.0911C4.15165 11.0911 5.10967 10.1331 5.10967 8.95132C5.10967 7.76954 4.15165 6.81152 2.96987 6.81152C1.7881 6.81152 0.830078 7.76954 0.830078 8.95132C0.830078 10.1331 1.7881 11.0911 2.96987 11.0911Z" fill="url(#paint16_linear_5982_7420)"/>
<path d="M2.96987 18.0215C4.15165 18.0215 5.10967 17.0635 5.10967 15.8817C5.10967 14.7 4.15165 13.7419 2.96987 13.7419C1.7881 13.7419 0.830078 14.7 0.830078 15.8817C0.830078 17.0635 1.7881 18.0215 2.96987 18.0215Z" fill="url(#paint17_linear_5982_7420)"/>
<path d="M2.96987 24.9874C4.15165 24.9874 5.10967 24.0293 5.10967 22.8476C5.10967 21.6658 4.15165 20.7078 2.96987 20.7078C1.7881 20.7078 0.830078 21.6658 0.830078 22.8476C0.830078 24.0293 1.7881 24.9874 2.96987 24.9874Z" fill="url(#paint18_linear_5982_7420)"/>
<defs>
<linearGradient id="paint0_linear_5982_7420" x1="14.996" y1="2.09251" x2="11.5474" y2="24.5145" gradientUnits="userSpaceOnUse">
<stop stop-color="#FF2E72"/>
<stop offset="1" stop-color="#4A125E"/>
</linearGradient>
<linearGradient id="paint1_linear_5982_7420" x1="16.0328" y1="2.24882" x2="12.5848" y2="24.6838" gradientUnits="userSpaceOnUse">
<stop stop-color="#FF2E72"/>
<stop offset="1" stop-color="#4A125E"/>
</linearGradient>
<linearGradient id="paint2_linear_5982_7420" x1="21.3728" y1="3.07326" x2="17.9232" y2="25.5044" gradientUnits="userSpaceOnUse">
<stop stop-color="#FF2E72"/>
<stop offset="1" stop-color="#4A125E"/>
</linearGradient>
<linearGradient id="paint3_linear_5982_7420" x1="9.65031" y1="1.26946" x2="6.20065" y2="23.7006" gradientUnits="userSpaceOnUse">
<stop stop-color="#FF2E72"/>
<stop offset="1" stop-color="#4A125E"/>
</linearGradient>
<linearGradient id="paint4_linear_5982_7420" x1="22.4128" y1="3.23384" x2="18.9634" y2="25.6589" gradientUnits="userSpaceOnUse">
<stop stop-color="#FF2E72"/>
<stop offset="1" stop-color="#4A125E"/>
</linearGradient>
<linearGradient id="paint5_linear_5982_7420" x1="10.689" y1="1.43213" x2="7.23538" y2="23.8572" gradientUnits="userSpaceOnUse">
<stop stop-color="#FF2E72"/>
<stop offset="1" stop-color="#4A125E"/>
</linearGradient>
<linearGradient id="paint6_linear_5982_7420" x1="17.0765" y1="2.41351" x2="13.6279" y2="24.8395" gradientUnits="userSpaceOnUse">
<stop stop-color="#FF2E72"/>
<stop offset="1" stop-color="#4A125E"/>
</linearGradient>
<linearGradient id="paint7_linear_5982_7420" x1="18.1169" y1="2.56647" x2="14.6647" y2="25.0015" gradientUnits="userSpaceOnUse">
<stop stop-color="#FF2E72"/>
<stop offset="1" stop-color="#4A125E"/>
</linearGradient>
<linearGradient id="paint8_linear_5982_7420" x1="23.4551" y1="3.39019" x2="20.0054" y2="25.8255" gradientUnits="userSpaceOnUse">
<stop stop-color="#FF2E72"/>
<stop offset="1" stop-color="#4A125E"/>
</linearGradient>
<linearGradient id="paint9_linear_5982_7420" x1="11.7326" y1="1.58639" x2="8.28292" y2="24.0217" gradientUnits="userSpaceOnUse">
<stop stop-color="#FF2E72"/>
<stop offset="1" stop-color="#4A125E"/>
</linearGradient>
<linearGradient id="paint10_linear_5982_7420" x1="24.4927" y1="3.5554" x2="21.0433" y2="25.9805" gradientUnits="userSpaceOnUse">
<stop stop-color="#FF2E72"/>
<stop offset="1" stop-color="#4A125E"/>
</linearGradient>
<linearGradient id="paint11_linear_5982_7420" x1="12.7689" y1="1.7537" x2="9.31955" y2="24.1788" gradientUnits="userSpaceOnUse">
<stop stop-color="#FF2E72"/>
<stop offset="1" stop-color="#4A125E"/>
</linearGradient>
<linearGradient id="paint12_linear_5982_7420" x1="19.1866" y1="2.72881" x2="15.7344" y2="25.1638" gradientUnits="userSpaceOnUse">
<stop stop-color="#FF2E72"/>
<stop offset="1" stop-color="#4A125E"/>
</linearGradient>
<linearGradient id="paint13_linear_5982_7420" x1="27.7827" y1="4.05975" x2="24.3333" y2="26.4848" gradientUnits="userSpaceOnUse">
<stop stop-color="#FF2E72"/>
<stop offset="1" stop-color="#4A125E"/>
</linearGradient>
<linearGradient id="paint14_linear_5982_7420" x1="28.8226" y1="4.21986" x2="25.3733" y2="26.6449" gradientUnits="userSpaceOnUse">
<stop stop-color="#FF2E72"/>
<stop offset="1" stop-color="#4A125E"/>
</linearGradient>
<linearGradient id="paint15_linear_5982_7420" x1="29.8711" y1="4.38112" x2="26.4218" y2="26.8105" gradientUnits="userSpaceOnUse">
<stop stop-color="#FF2E72"/>
<stop offset="1" stop-color="#4A125E"/>
</linearGradient>
<linearGradient id="paint16_linear_5982_7420" x1="4.27943" y1="0.443491" x2="0.830076" y2="22.8686" gradientUnits="userSpaceOnUse">
<stop stop-color="#FF2E72"/>
<stop offset="1" stop-color="#4A125E"/>
</linearGradient>
<linearGradient id="paint17_linear_5982_7420" x1="5.31937" y1="0.607882" x2="1.87002" y2="23.0329" gradientUnits="userSpaceOnUse">
<stop stop-color="#FF2E72"/>
<stop offset="1" stop-color="#4A125E"/>
</linearGradient>
<linearGradient id="paint18_linear_5982_7420" x1="6.36787" y1="0.769139" x2="2.91852" y2="23.1942" gradientUnits="userSpaceOnUse">
<stop stop-color="#FF2E72"/>
<stop offset="1" stop-color="#4A125E"/>
</linearGradient>
</defs>
</svg>
