<svg width="24" height="24" viewBox="0 0 24 24" fill="none" xmlns="http://www.w3.org/2000/svg">
<g clip-path="url(#clip0_6441_1155)">
<path opacity="0.2" fill-rule="evenodd" clip-rule="evenodd" d="M13.2773 3.08159C13.9781 2.38079 13.9781 1.23839 13.2773 0.527985C12.5765 -0.182415 11.4341 -0.172815 10.7237 0.527985L0.52853 10.7232C-0.17227 11.424 -0.17227 12.5664 0.52853 13.2768L5.62613 18.3744C6.32693 19.0752 7.46933 19.0752 8.17973 18.3744L17.0981 9.45599L19.6517 12.0096L10.7333 20.928C10.0325 21.6288 10.0325 22.7712 10.7333 23.4816C11.4341 24.1824 12.5765 24.1824 13.2869 23.4816L23.4821 13.2864C24.1829 12.5856 24.1829 11.4432 23.4821 10.7328L18.3845 5.63519C17.6837 4.93439 16.5413 4.93439 15.8309 5.63519L6.91253 14.5536L4.34933 12L13.2773 3.08159Z" fill="url(#paint0_linear_6441_1155)"/>
<path fill-rule="evenodd" clip-rule="evenodd" d="M13.2773 20.9184C13.9781 21.6192 13.9781 22.7616 13.2773 23.472C12.5765 24.1824 11.4341 24.1728 10.7237 23.472C10.0229 22.7712 10.0229 21.6288 10.7237 20.9184C11.4341 20.2176 12.5669 20.2176 13.2773 20.9184ZM8.17973 15.8208C8.88053 16.5216 8.88053 17.664 8.17973 18.3744C7.47893 19.0848 6.33653 19.0752 5.62613 18.3744C4.91573 17.6736 4.92533 16.5312 5.62613 15.8208C6.32693 15.12 7.46933 15.12 8.17973 15.8208ZM18.3749 15.8208C19.0757 16.5216 19.0757 17.664 18.3749 18.3744C17.6741 19.0752 16.5317 19.0752 15.8213 18.3744C15.1109 17.6736 15.1205 16.5312 15.8213 15.8208C16.5317 15.12 17.6741 15.12 18.3749 15.8208ZM3.08213 10.7232C3.78293 11.424 3.78293 12.5664 3.08213 13.2768C2.38133 13.9776 1.23893 13.9776 0.52853 13.2768C-0.17227 12.576 -0.17227 11.4336 0.52853 10.7232C1.22933 10.0224 2.37173 10.0224 3.08213 10.7232ZM13.2773 10.7232C13.9781 11.424 13.9781 12.5664 13.2773 13.2768C12.5765 13.9776 11.4341 13.9776 10.7237 13.2768C10.0229 12.576 10.0229 11.4336 10.7237 10.7232C11.4341 10.0224 12.5669 10.0224 13.2773 10.7232ZM23.4725 10.7232C24.1733 11.424 24.1733 12.5664 23.4725 13.2768C22.7717 13.9776 21.6293 13.9776 20.9189 13.2768C20.2181 12.576 20.2181 11.4336 20.9189 10.7232C21.6293 10.0224 22.7717 10.0224 23.4725 10.7232ZM8.17973 5.62564C8.88053 6.32644 8.88053 7.46884 8.17973 8.17924C7.47893 8.88004 6.33653 8.88004 5.62613 8.17924C4.92533 7.47844 4.92533 6.33604 5.62613 5.62564C6.32693 4.92484 7.46933 4.92484 8.17973 5.62564ZM18.3749 5.62564C19.0757 6.32644 19.0757 7.46884 18.3749 8.17924C17.6741 8.88004 16.5317 8.88004 15.8213 8.17924C15.1205 7.47844 15.1205 6.33604 15.8213 5.62564C16.5317 4.92484 17.6741 4.92484 18.3749 5.62564ZM13.2773 0.528041C13.9781 1.22884 13.9781 2.37124 13.2773 3.08164C12.5765 3.78244 11.4341 3.78244 10.7237 3.08164C10.0229 2.38084 10.0229 1.23844 10.7237 0.528041C11.4341 -0.172759 12.5669 -0.172759 13.2773 0.528041Z" fill="url(#paint1_linear_6441_1155)"/>
</g>
<defs>
<linearGradient id="paint0_linear_6441_1155" x1="23.9934" y1="23.9762" x2="-0.0066689" y2="-0.0236255" gradientUnits="userSpaceOnUse">
<stop stop-color="#FE3876"/>
<stop offset="0.7144" stop-color="#7C30DD"/>
<stop offset="1" stop-color="#3A30DD"/>
</linearGradient>
<linearGradient id="paint1_linear_6441_1155" x1="24.0319" y1="24.0236" x2="0.0318246" y2="0.0235687" gradientUnits="userSpaceOnUse">
<stop stop-color="#FE3876"/>
<stop offset="0.7144" stop-color="#7C30DD"/>
<stop offset="1" stop-color="#3A30DD"/>
</linearGradient>
<clipPath id="clip0_6441_1155">
<rect width="24" height="24" fill="white"/>
</clipPath>
</defs>
</svg>
